<svg width="1248" height="523" viewBox="0 0 1248 523" fill="none" xmlns="http://www.w3.org/2000/svg">
<g clip-path="url(#clip0_532_2967)">
<rect width="1248" height="523" fill="#141414"/>
<path d="M280.535 1245.77C55.4423 1470.87 -309.506 1470.87 -534.599 1245.77C-759.692 1020.68 -759.692 655.731 -534.599 430.638C-478.637 374.676 -396.134 335.674 -299.968 312.3C-203.847 288.937 -94.3717 281.263 15.1923 287.722C234.559 300.653 453.142 370.147 565.454 482.459C621.422 538.426 645.665 599.687 647.259 663.628C648.856 727.707 627.71 794.804 592.273 862.255C521.364 997.225 393.895 1132.41 280.535 1245.77Z" stroke="#333333" stroke-width="8"/>
<path d="M1159.61 761.677C1159.61 1080.01 901.552 1338.06 583.223 1338.06C424.059 1338.06 233.889 1259.04 106.489 1147.31C42.8142 1091.46 -4.87712 1027.7 -25.3329 961.922C-45.7347 896.315 -39.119 828.525 6.1121 763.972C40.199 715.324 79.9931 686.104 124.199 669.564C168.487 652.993 217.431 649.063 269.908 651.39C317.229 653.488 367.161 660.655 418.946 668.087C424.622 668.902 430.319 669.72 436.038 670.534C493.85 678.769 553.742 686.668 614.197 687.525C669.013 688.303 730.937 673.376 792.596 655.804C808.54 651.261 824.46 646.543 840.249 641.863C885.758 628.376 930.178 615.212 970.93 607.482C1025.94 597.048 1072.91 596.822 1106.09 618.04C1138.96 639.061 1159.61 682.078 1159.61 761.677Z" stroke="#333333" stroke-width="8"/>
<path d="M1511.38 -133.613C1511.38 26.5656 1487.73 125.855 1425.37 185.395C1362.96 244.988 1260.74 265.784 1100.49 265.784C782.16 265.784 524.103 7.72711 524.103 -310.602C524.103 -470.781 547.754 -570.071 610.108 -629.61C672.518 -689.204 774.744 -710 934.993 -710C1253.32 -710 1511.38 -451.943 1511.38 -133.613Z" stroke="#333333" stroke-width="8"/>
<path d="M1821.28 550.387C1821.28 710.566 1797.63 809.855 1735.27 869.395C1672.86 928.988 1570.64 949.784 1410.39 949.784C1092.06 949.784 834 691.727 834 373.398C834 213.219 857.652 113.929 920.006 54.3897C982.416 -5.20368 1084.64 -26 1244.89 -26C1563.22 -26 1821.28 232.057 1821.28 550.387Z" stroke="#333333" stroke-width="8"/>
<path d="M113.983 -416.27C353.323 -337.494 483.486 -79.6106 404.71 159.729C325.935 399.069 68.0511 529.232 -171.289 450.457C-230.706 430.9 -287.676 386.55 -338.526 326.891C-389.347 267.267 -433.856 192.584 -468.406 112.775C-537.6 -47.0623 -566.42 -226.401 -527.136 -345.756C-507.577 -405.18 -473.009 -444.059 -428.508 -467.93C-383.886 -491.866 -328.988 -500.862 -268.656 -499.878C-147.914 -497.908 -6.77971 -456.017 113.983 -416.27Z" stroke="#333333" stroke-width="8"/>
</g>
<defs>
<clipPath id="clip0_532_2967">
<rect width="1248" height="523" fill="white"/>
</clipPath>
</defs>
</svg>
